<svg xmlns="http://www.w3.org/2000/svg" xmlns:xlink="http://www.w3.org/1999/xlink" width="12pt" height="11pt" viewBox="0 0 12 11" version="1.1">
        <path style="fill:none;stroke-width:8;stroke-linecap:butt;stroke-linejoin:miter;stroke:rgb(100%,100%,100%);stroke-opacity:1;stroke-miterlimit:10;" d="M 39.980833 116.071648 L 6.941243 116.071648 C 5.233074 115.986364 3.929471 114.536534 4.019375 112.830852 L 4.019375 34.326847 C 4.289086 32.749091 5.412882 31.512472 6.941243 31.086051 L 78.055027 4.093636 C 80.572329 3.581932 81.021848 5.543466 81.021848 7.29179 L 81.021848 32.066818 M 133.480625 112.830852 L 133.480625 67.289148 C 133.480625 65.540824 133.480625 65.071761 130.289046 64.090994 L 59.714684 43.068466 C 56.478152 42.087699 56.478152 44.518295 56.478152 46.309261 L 56.478152 112.830852 C 56.478152 114.621818 57.961563 116.071648 59.714684 116.071648 L 130.289046 116.071648 C 132.042167 116.071648 133.480625 114.621818 133.480625 112.830852 Z M 133.480625 112.830852 " transform="matrix(0.0868986,0,0,0.0916056,0.025722,0)"/>
</svg>